<mxfile host="65bd71144e" modified="2021-02-21T14:12:20.147Z" agent="5.0 (Macintosh; Intel Mac OS X 10_15_7) AppleWebKit/537.36 (KHTML, like Gecko) Code/1.53.2 Chrome/87.0.4280.141 Electron/11.2.1 Safari/537.36" version="14.2.4" etag="wlipNvS9975sYRGlWesQ" type="embed">
    <diagram id="UfTvKlbGPs5zD44W6hj9" name="Page-1">
        <mxGraphModel dx="4994" dy="145" grid="1" gridSize="10" guides="1" tooltips="1" connect="1" arrows="1" fold="1" page="1" pageScale="1" pageWidth="827" pageHeight="1169" math="0" shadow="0">
            <root>
                <mxCell id="0"/>
                <mxCell id="1" parent="0"/>
                <mxCell id="2" value="" style="rounded=0;whiteSpace=wrap;html=1;strokeColor=#000000;strokeWidth=5;fillColor=none;" vertex="1" parent="1">
                    <mxGeometry x="-671.29" y="3060" width="2101.29" height="1280" as="geometry"/>
                </mxCell>
                <mxCell id="3" value="" style="rounded=1;whiteSpace=wrap;html=1;strokeColor=#3CB2B6;fillColor=#DCE7EF;" vertex="1" parent="1">
                    <mxGeometry x="-534.88" y="3970" width="120" height="130" as="geometry"/>
                </mxCell>
                <mxCell id="4" value="" style="rounded=1;whiteSpace=wrap;html=1;strokeColor=#3CB2B6;fillColor=#DCE7EF;" vertex="1" parent="1">
                    <mxGeometry x="-152.68999999999994" y="3180" width="120" height="60" as="geometry"/>
                </mxCell>
                <mxCell id="5" value="" style="whiteSpace=wrap;html=1;strokeColor=#3CB2B6;fillColor=#dce7ef;rotation=0;rounded=1;arcSize=3;" vertex="1" parent="1">
                    <mxGeometry x="-286.88" y="3353" width="330" height="270" as="geometry"/>
                </mxCell>
                <mxCell id="6" value="" style="rounded=1;whiteSpace=wrap;html=1;fillColor=#FFFFFF;strokeColor=none;arcSize=9;" vertex="1" parent="1">
                    <mxGeometry x="-249.08000000000004" y="3379.59" width="259.6" height="90" as="geometry"/>
                </mxCell>
                <mxCell id="7" value="" style="ellipse;whiteSpace=wrap;html=1;aspect=fixed;fillColor=#64cee3;strokeColor=#3CB2B6;strokeWidth=2;" vertex="1" parent="1">
                    <mxGeometry x="-122.48000000000002" y="3394.8" width="59.59" height="59.59" as="geometry"/>
                </mxCell>
                <mxCell id="8" value="" style="rounded=1;whiteSpace=wrap;html=1;fillColor=#FFFFFF;strokeColor=none;arcSize=9;" vertex="1" parent="1">
                    <mxGeometry x="-249.08000000000004" y="3500" width="259.6" height="90" as="geometry"/>
                </mxCell>
                <mxCell id="9" value="" style="shape=flexArrow;endArrow=classic;html=1;strokeColor=#FFFFFF;fillColor=#cacacb;" edge="1" parent="1">
                    <mxGeometry width="50" height="50" relative="1" as="geometry">
                        <mxPoint x="-92.8799999999992" y="3330" as="sourcePoint"/>
                        <mxPoint x="-92.8799999999992" y="3389" as="targetPoint"/>
                    </mxGeometry>
                </mxCell>
                <mxCell id="10" value="" style="endArrow=classic;html=1;strokeWidth=3;strokeColor=#006682;" edge="1" parent="1">
                    <mxGeometry width="50" height="50" relative="1" as="geometry">
                        <mxPoint x="-75.8799999999992" y="3430" as="sourcePoint"/>
                        <mxPoint x="-105.8799999999992" y="3430" as="targetPoint"/>
                    </mxGeometry>
                </mxCell>
                <mxCell id="11" value="" style="endArrow=classic;html=1;strokeWidth=3;strokeColor=#006682;" edge="1" parent="1">
                    <mxGeometry width="50" height="50" relative="1" as="geometry">
                        <mxPoint x="-105.8799999999992" y="3420" as="sourcePoint"/>
                        <mxPoint x="-75.8799999999992" y="3420" as="targetPoint"/>
                    </mxGeometry>
                </mxCell>
                <mxCell id="12" value="" style="rounded=1;whiteSpace=wrap;html=1;strokeWidth=2;arcSize=15;strokeColor=#808080;fillColor=#66d5eb;" vertex="1" parent="1">
                    <mxGeometry x="-166.88" y="3510" width="64" height="70" as="geometry"/>
                </mxCell>
                <mxCell id="13" value="" style="rounded=0;whiteSpace=wrap;html=1;strokeWidth=2;fillColor=#FFFFFF;strokeColor=none;" vertex="1" parent="1">
                    <mxGeometry x="-159.88" y="3518" width="50" height="10" as="geometry"/>
                </mxCell>
                <mxCell id="14" value="" style="rounded=0;whiteSpace=wrap;html=1;strokeWidth=2;fillColor=#FFFFFF;strokeColor=none;" vertex="1" parent="1">
                    <mxGeometry x="-159.88" y="3533" width="50" height="10" as="geometry"/>
                </mxCell>
                <mxCell id="15" value="" style="rounded=0;whiteSpace=wrap;html=1;strokeWidth=2;fillColor=#FFFFFF;strokeColor=none;" vertex="1" parent="1">
                    <mxGeometry x="-159.88" y="3548" width="50" height="10" as="geometry"/>
                </mxCell>
                <mxCell id="16" value="" style="rounded=0;whiteSpace=wrap;html=1;strokeWidth=2;strokeColor=none;fillColor=#FFB500;" vertex="1" parent="1">
                    <mxGeometry x="-159.88" y="3563" width="50" height="10" as="geometry"/>
                </mxCell>
                <mxCell id="17" value="" style="rounded=1;whiteSpace=wrap;html=1;strokeWidth=2;arcSize=14;strokeColor=#808080;fillColor=#66d5eb;" vertex="1" parent="1">
                    <mxGeometry x="-82.88" y="3510" width="64" height="70" as="geometry"/>
                </mxCell>
                <mxCell id="18" value="" style="rounded=0;whiteSpace=wrap;html=1;strokeWidth=2;fillColor=#FFFFFF;strokeColor=none;" vertex="1" parent="1">
                    <mxGeometry x="-75.88" y="3518" width="50" height="10" as="geometry"/>
                </mxCell>
                <mxCell id="19" value="" style="rounded=0;whiteSpace=wrap;html=1;strokeWidth=2;fillColor=#FFFFFF;strokeColor=none;" vertex="1" parent="1">
                    <mxGeometry x="-75.88" y="3533" width="50" height="10" as="geometry"/>
                </mxCell>
                <mxCell id="20" value="" style="rounded=0;whiteSpace=wrap;html=1;strokeWidth=2;fillColor=#FFFFFF;strokeColor=none;" vertex="1" parent="1">
                    <mxGeometry x="-75.88" y="3548" width="50" height="10" as="geometry"/>
                </mxCell>
                <mxCell id="21" value="" style="rounded=0;whiteSpace=wrap;html=1;strokeWidth=2;fillColor=#FFFFFF;strokeColor=none;" vertex="1" parent="1">
                    <mxGeometry x="-75.88" y="3563" width="50" height="10" as="geometry"/>
                </mxCell>
                <mxCell id="22" value="" style="shape=flexArrow;endArrow=classic;html=1;strokeColor=#FFFFFF;fillColor=#cacacb;" edge="1" parent="1">
                    <mxGeometry width="50" height="50" relative="1" as="geometry">
                        <mxPoint x="-137.8799999999992" y="3585" as="sourcePoint"/>
                        <mxPoint x="-137.8799999999992" y="3663" as="targetPoint"/>
                    </mxGeometry>
                </mxCell>
                <mxCell id="23" value="" style="shape=flexArrow;endArrow=classic;html=1;strokeColor=#FFFFFF;fillColor=#cacacb;" edge="1" parent="1">
                    <mxGeometry width="50" height="50" relative="1" as="geometry">
                        <mxPoint x="-108.8799999999992" y="3456" as="sourcePoint"/>
                        <mxPoint x="-138.8799999999992" y="3506" as="targetPoint"/>
                    </mxGeometry>
                </mxCell>
                <mxCell id="24" value="" style="shape=flexArrow;endArrow=classic;html=1;strokeColor=#FFFFFF;fillColor=#cacacb;exitX=0.683;exitY=0.831;exitDx=0;exitDy=0;exitPerimeter=0;" edge="1" parent="1">
                    <mxGeometry width="50" height="50" relative="1" as="geometry">
                        <mxPoint x="-76.77319999999963" y="3457.380000000001" as="sourcePoint"/>
                        <mxPoint x="-48.8799999999992" y="3507" as="targetPoint"/>
                    </mxGeometry>
                </mxCell>
                <mxCell id="25" value="&lt;h6&gt;&lt;font color=&quot;#808080&quot;&gt;EXCHANGE&lt;/font&gt;&lt;/h6&gt;" style="text;html=1;strokeColor=none;fillColor=none;align=center;verticalAlign=middle;whiteSpace=wrap;rounded=0;opacity=50;" vertex="1" parent="1">
                    <mxGeometry x="-250.88" y="3386" width="59" height="10" as="geometry"/>
                </mxCell>
                <mxCell id="26" value="&lt;h6&gt;&lt;font color=&quot;#808080&quot;&gt;QUEUES&lt;/font&gt;&lt;/h6&gt;" style="text;html=1;strokeColor=none;fillColor=none;align=center;verticalAlign=middle;whiteSpace=wrap;rounded=0;opacity=50;" vertex="1" parent="1">
                    <mxGeometry x="-249.88" y="3508" width="43" height="10" as="geometry"/>
                </mxCell>
                <mxCell id="27" value="&lt;h6&gt;&lt;font color=&quot;#808080&quot;&gt;Binding&lt;/font&gt;&lt;/h6&gt;" style="text;html=1;strokeColor=none;fillColor=none;align=center;verticalAlign=middle;whiteSpace=wrap;rounded=0;opacity=50;" vertex="1" parent="1">
                    <mxGeometry x="-111.88" y="3469.59" width="40" height="20" as="geometry"/>
                </mxCell>
                <mxCell id="28" value="" style="html=1;dashed=0;whitespace=wrap;fillColor=#2875E2;strokeColor=#ffffff;points=[[0.005,0.63,0],[0.1,0.2,0],[0.9,0.2,0],[0.5,0,0],[0.995,0.63,0],[0.72,0.99,0],[0.5,1,0],[0.28,0.99,0]];shape=mxgraph.kubernetes.icon;prIcon=node" vertex="1" parent="1">
                    <mxGeometry x="-146.88" y="3186" width="50" height="48" as="geometry"/>
                </mxCell>
                <mxCell id="29" value="" style="html=1;verticalLabelPosition=bottom;align=center;labelBackgroundColor=#ffffff;verticalAlign=top;strokeWidth=1;shadow=0;dashed=0;shape=mxgraph.ios7.icons.mail;rounded=1;fillColor=#FFD47B;strokeColor=#808080;" vertex="1" parent="1">
                    <mxGeometry x="-107.68999999999994" y="3305" width="30" height="16.5" as="geometry"/>
                </mxCell>
                <mxCell id="30" value="" style="html=1;verticalLabelPosition=bottom;align=center;labelBackgroundColor=#ffffff;verticalAlign=top;strokeWidth=1;shadow=0;dashed=0;shape=mxgraph.ios7.icons.envelope_(message);rounded=1;fillColor=#FFD47B;strokeColor=#808080;" vertex="1" parent="1">
                    <mxGeometry x="-152.68999999999994" y="3670" width="30" height="30" as="geometry"/>
                </mxCell>
                <mxCell id="31" value="" style="group" vertex="1" connectable="0" parent="1">
                    <mxGeometry x="-276.88" y="3600" width="61.76" height="15" as="geometry"/>
                </mxCell>
                <mxCell id="32" value="" style="shape=image;verticalLabelPosition=bottom;labelBackgroundColor=#ffffff;verticalAlign=top;aspect=fixed;imageAspect=0;image=https://cdn.iconscout.com/icon/free/png-256/rabbitmq-282296.png;" vertex="1" parent="31">
                    <mxGeometry x="5.606465997770346" y="3" width="12.90969899665552" height="12.90969899665552" as="geometry"/>
                </mxCell>
                <mxCell id="33" value="&lt;font color=&quot;#333333&quot; style=&quot;font-size: 9px&quot;&gt;&lt;b&gt;RabbitMQ&lt;/b&gt;&lt;/font&gt;" style="text;html=1;strokeColor=none;fillColor=none;align=center;verticalAlign=middle;whiteSpace=wrap;rounded=0;" vertex="1" parent="31">
                    <mxGeometry x="18.727670011148266" y="2.3600000000001273" width="43.03232998885173" height="14.29" as="geometry"/>
                </mxCell>
                <mxCell id="34" value="&lt;h6&gt;BROKER&lt;/h6&gt;" style="text;html=1;strokeColor=none;fillColor=none;align=center;verticalAlign=middle;whiteSpace=wrap;rounded=0;opacity=50;" vertex="1" parent="1">
                    <mxGeometry x="-278.88" y="3357.59" width="40" height="10" as="geometry"/>
                </mxCell>
                <mxCell id="35" value="&lt;div style=&quot;text-align: center&quot;&gt;&lt;span style=&quot;font-size: 8.04px&quot;&gt;&lt;font face=&quot;helvetica&quot;&gt;&lt;b&gt;PRODUCER&lt;/b&gt;&lt;/font&gt;&lt;/span&gt;&lt;/div&gt;" style="text;whiteSpace=wrap;html=1;" vertex="1" parent="1">
                    <mxGeometry x="-286.88" y="3320" width="69" height="20" as="geometry"/>
                </mxCell>
                <mxCell id="36" value="&lt;div style=&quot;text-align: center&quot;&gt;&lt;span style=&quot;font-size: 8.04px&quot;&gt;&lt;font face=&quot;helvetica&quot;&gt;&lt;b&gt;CONSUMER&lt;/b&gt;&lt;/font&gt;&lt;/span&gt;&lt;/div&gt;" style="text;whiteSpace=wrap;html=1;" vertex="1" parent="1">
                    <mxGeometry x="-286.88" y="3629" width="69" height="20" as="geometry"/>
                </mxCell>
                <mxCell id="37" value="" style="group" vertex="1" connectable="0" parent="1">
                    <mxGeometry x="-23.879999999999995" y="3326" width="34.76" height="26.41" as="geometry"/>
                </mxCell>
                <mxCell id="38" value="" style="ellipse;whiteSpace=wrap;html=1;aspect=fixed;rounded=1;strokeWidth=1;fillColor=#E6E6E6;strokeColor=#4D4D4D;" vertex="1" parent="37">
                    <mxGeometry x="8.66720869239412" y="4.492825443787047" width="17.417837771203178" height="17.417837771203178" as="geometry"/>
                </mxCell>
                <mxCell id="39" value="1" style="text;html=1;strokeColor=none;fillColor=none;align=center;verticalAlign=middle;whiteSpace=wrap;rounded=0;" vertex="1" parent="37">
                    <mxGeometry width="34.76" height="26.410000000000036" as="geometry"/>
                </mxCell>
                <mxCell id="40" value="" style="group" vertex="1" connectable="0" parent="1">
                    <mxGeometry x="-23.879999999999995" y="3411" width="34.76" height="26.41" as="geometry"/>
                </mxCell>
                <mxCell id="41" value="" style="ellipse;whiteSpace=wrap;html=1;aspect=fixed;rounded=1;strokeWidth=1;fillColor=#E6E6E6;strokeColor=#4D4D4D;" vertex="1" parent="40">
                    <mxGeometry x="8.66720869239412" y="4.492825443787047" width="17.417837771203178" height="17.417837771203178" as="geometry"/>
                </mxCell>
                <mxCell id="42" value="2" style="text;html=1;strokeColor=none;fillColor=none;align=center;verticalAlign=middle;whiteSpace=wrap;rounded=0;" vertex="1" parent="40">
                    <mxGeometry width="34.76" height="26.410000000000036" as="geometry"/>
                </mxCell>
                <mxCell id="43" value="" style="group" vertex="1" connectable="0" parent="1">
                    <mxGeometry x="-23.879999999999995" y="3472" width="34.76" height="26.41" as="geometry"/>
                </mxCell>
                <mxCell id="44" value="" style="ellipse;whiteSpace=wrap;html=1;aspect=fixed;rounded=1;strokeWidth=1;fillColor=#E6E6E6;strokeColor=#4D4D4D;" vertex="1" parent="43">
                    <mxGeometry x="8.66720869239412" y="4.492825443787047" width="17.417837771203178" height="17.417837771203178" as="geometry"/>
                </mxCell>
                <mxCell id="45" value="3" style="text;html=1;strokeColor=none;fillColor=none;align=center;verticalAlign=middle;whiteSpace=wrap;rounded=0;" vertex="1" parent="43">
                    <mxGeometry width="34.76" height="26.410000000000036" as="geometry"/>
                </mxCell>
                <mxCell id="46" value="" style="group" vertex="1" connectable="0" parent="1">
                    <mxGeometry x="-23.879999999999995" y="3541" width="34.76" height="26.41" as="geometry"/>
                </mxCell>
                <mxCell id="47" value="" style="ellipse;whiteSpace=wrap;html=1;aspect=fixed;rounded=1;strokeWidth=1;fillColor=#E6E6E6;strokeColor=#4D4D4D;" vertex="1" parent="46">
                    <mxGeometry x="8.66720869239412" y="4.492825443787047" width="17.417837771203178" height="17.417837771203178" as="geometry"/>
                </mxCell>
                <mxCell id="48" value="4" style="text;html=1;strokeColor=none;fillColor=none;align=center;verticalAlign=middle;whiteSpace=wrap;rounded=0;" vertex="1" parent="46">
                    <mxGeometry y="-1" width="34.76" height="26.410000000000036" as="geometry"/>
                </mxCell>
                <mxCell id="49" value="" style="group" vertex="1" connectable="0" parent="1">
                    <mxGeometry x="-26.879999999999995" y="3623" width="34.76" height="26.41" as="geometry"/>
                </mxCell>
                <mxCell id="50" value="" style="ellipse;whiteSpace=wrap;html=1;aspect=fixed;rounded=1;strokeWidth=1;fillColor=#E6E6E6;strokeColor=#4D4D4D;" vertex="1" parent="49">
                    <mxGeometry x="8.66720869239412" y="4.492825443787047" width="17.417837771203178" height="17.417837771203178" as="geometry"/>
                </mxCell>
                <mxCell id="51" value="5" style="text;html=1;strokeColor=none;fillColor=none;align=center;verticalAlign=middle;whiteSpace=wrap;rounded=0;" vertex="1" parent="49">
                    <mxGeometry y="-1" width="34.76" height="26.410000000000036" as="geometry"/>
                </mxCell>
                <mxCell id="52" value="&lt;font color=&quot;#555555&quot; style=&quot;font-size: 10px&quot;&gt;Identity&lt;br&gt;Service&lt;/font&gt;" style="text;html=1;strokeColor=none;fillColor=none;align=center;verticalAlign=middle;whiteSpace=wrap;rounded=0;" vertex="1" parent="1">
                    <mxGeometry x="-76.88" y="3211" width="34" height="20" as="geometry"/>
                </mxCell>
                <mxCell id="53" value="" style="shape=flexArrow;endArrow=classic;html=1;strokeColor=#FFFFFF;fillColor=#cacacb;" edge="1" parent="1">
                    <mxGeometry width="50" height="50" relative="1" as="geometry">
                        <mxPoint x="-92.8799999999992" y="3250" as="sourcePoint"/>
                        <mxPoint x="-93.03000000000065" y="3298" as="targetPoint"/>
                    </mxGeometry>
                </mxCell>
                <mxCell id="54" value="" style="dashed=0;outlineConnect=0;html=1;align=center;labelPosition=center;verticalLabelPosition=bottom;verticalAlign=top;shape=mxgraph.weblogos.aws_s3;rounded=1;strokeColor=#808080;strokeWidth=1;fillColor=#DCE7EF;" vertex="1" parent="1">
                    <mxGeometry x="-518.88" y="3994" width="61.6" height="57.6" as="geometry"/>
                </mxCell>
                <mxCell id="55" value="&lt;font style=&quot;font-size: 12px&quot;&gt;AWS S3&lt;/font&gt;" style="text;html=1;strokeColor=none;fillColor=none;align=center;verticalAlign=middle;whiteSpace=wrap;rounded=0;" vertex="1" parent="1">
                    <mxGeometry x="-469.88" y="4071" width="40" height="20" as="geometry"/>
                </mxCell>
                <mxCell id="56" value="" style="rounded=1;whiteSpace=wrap;html=1;strokeColor=#808080;strokeWidth=1;fillColor=#DCE7EF;" vertex="1" parent="1">
                    <mxGeometry x="-355.88" y="3883" width="111" height="60" as="geometry"/>
                </mxCell>
                <mxCell id="57" value="" style="shape=flexArrow;endArrow=classic;html=1;strokeColor=#FFFFFF;fillColor=#cacacb;" edge="1" parent="1">
                    <mxGeometry width="50" height="50" relative="1" as="geometry">
                        <mxPoint x="-198.3799999999992" y="3830.59" as="sourcePoint"/>
                        <mxPoint x="-241.3799999999992" y="3875.59" as="targetPoint"/>
                    </mxGeometry>
                </mxCell>
                <mxCell id="58" value="" style="outlineConnect=0;dashed=0;verticalLabelPosition=bottom;verticalAlign=top;align=center;html=1;shape=mxgraph.aws3.android;fillColor=#8CC64F;gradientColor=none;rounded=1;strokeColor=#808080;strokeWidth=1;" vertex="1" parent="1">
                    <mxGeometry x="-347.88" y="3889" width="38.5" height="44" as="geometry"/>
                </mxCell>
                <mxCell id="59" value="Storage&lt;br&gt;Service" style="text;html=1;strokeColor=none;fillColor=none;align=center;verticalAlign=middle;whiteSpace=wrap;rounded=0;" vertex="1" parent="1">
                    <mxGeometry x="-295" y="3915" width="40" height="20" as="geometry"/>
                </mxCell>
                <mxCell id="60" value="" style="shape=flexArrow;endArrow=classic;html=1;strokeColor=#FFFFFF;fillColor=#cacacb;" edge="1" parent="1">
                    <mxGeometry width="50" height="50" relative="1" as="geometry">
                        <mxPoint x="-365.8799999999992" y="3943" as="sourcePoint"/>
                        <mxPoint x="-408.8799999999992" y="3988" as="targetPoint"/>
                    </mxGeometry>
                </mxCell>
                <mxCell id="61" value="" style="shape=flexArrow;endArrow=classic;html=1;strokeColor=#FFFFFF;fillColor=#cacacb;" edge="1" parent="1">
                    <mxGeometry width="50" height="50" relative="1" as="geometry">
                        <mxPoint x="-137.97999999999956" y="3709" as="sourcePoint"/>
                        <mxPoint x="-137.97999999999956" y="3759" as="targetPoint"/>
                    </mxGeometry>
                </mxCell>
                <mxCell id="62" value="" style="rounded=1;whiteSpace=wrap;html=1;strokeColor=#808080;strokeWidth=1;fillColor=#DCE7EF;" vertex="1" parent="1">
                    <mxGeometry x="-190.38" y="3765.59" width="111" height="60" as="geometry"/>
                </mxCell>
                <mxCell id="63" value="" style="outlineConnect=0;dashed=0;verticalLabelPosition=bottom;verticalAlign=top;align=center;html=1;shape=mxgraph.aws3.android;fillColor=#8CC64F;gradientColor=none;rounded=1;strokeColor=#808080;strokeWidth=1;" vertex="1" parent="1">
                    <mxGeometry x="-182.38" y="3771.59" width="38.5" height="44" as="geometry"/>
                </mxCell>
                <mxCell id="64" value="Worker&lt;br&gt;Service" style="text;html=1;strokeColor=none;fillColor=none;align=center;verticalAlign=middle;whiteSpace=wrap;rounded=0;" vertex="1" parent="1">
                    <mxGeometry x="-129.5" y="3797.59" width="40" height="20" as="geometry"/>
                </mxCell>
                <mxCell id="65" value="" style="whiteSpace=wrap;html=1;strokeColor=#3CB2B6;fillColor=#dce7ef;rotation=0;rounded=1;arcSize=3;" vertex="1" parent="1">
                    <mxGeometry x="174.96000000000004" y="3753.8" width="330" height="270" as="geometry"/>
                </mxCell>
                <mxCell id="66" value="" style="rounded=1;whiteSpace=wrap;html=1;fillColor=#FFFFFF;strokeColor=none;arcSize=9;" vertex="1" parent="1">
                    <mxGeometry x="212.75999999999988" y="3780.3900000000003" width="259.6" height="90" as="geometry"/>
                </mxCell>
                <mxCell id="67" value="" style="ellipse;whiteSpace=wrap;html=1;aspect=fixed;fillColor=#64cee3;strokeColor=#3CB2B6;strokeWidth=2;" vertex="1" parent="1">
                    <mxGeometry x="339.36" y="3795.6000000000004" width="59.59" height="59.59" as="geometry"/>
                </mxCell>
                <mxCell id="68" value="" style="rounded=1;whiteSpace=wrap;html=1;fillColor=#FFFFFF;strokeColor=none;arcSize=9;" vertex="1" parent="1">
                    <mxGeometry x="212.75999999999988" y="3900.8" width="259.6" height="90" as="geometry"/>
                </mxCell>
                <mxCell id="69" value="" style="shape=flexArrow;endArrow=classic;html=1;strokeColor=#FFFFFF;fillColor=#cacacb;entryX=0;entryY=1;entryDx=0;entryDy=0;" edge="1" parent="1" target="85">
                    <mxGeometry width="50" height="50" relative="1" as="geometry">
                        <mxPoint x="104.95999999999913" y="3796.7999999999993" as="sourcePoint"/>
                        <mxPoint x="117.96000000000004" y="3793.8900000000003" as="targetPoint"/>
                    </mxGeometry>
                </mxCell>
                <mxCell id="70" value="" style="endArrow=classic;html=1;strokeWidth=3;strokeColor=#006682;" edge="1" parent="1">
                    <mxGeometry width="50" height="50" relative="1" as="geometry">
                        <mxPoint x="385.9599999999973" y="3830.7999999999993" as="sourcePoint"/>
                        <mxPoint x="355.9599999999991" y="3830.7999999999993" as="targetPoint"/>
                    </mxGeometry>
                </mxCell>
                <mxCell id="71" value="" style="endArrow=classic;html=1;strokeWidth=3;strokeColor=#006682;" edge="1" parent="1">
                    <mxGeometry width="50" height="50" relative="1" as="geometry">
                        <mxPoint x="355.9599999999991" y="3820.7999999999993" as="sourcePoint"/>
                        <mxPoint x="385.9599999999973" y="3820.7999999999993" as="targetPoint"/>
                    </mxGeometry>
                </mxCell>
                <mxCell id="72" value="" style="rounded=1;whiteSpace=wrap;html=1;strokeWidth=2;arcSize=15;strokeColor=#808080;fillColor=#66d5eb;" vertex="1" parent="1">
                    <mxGeometry x="294.9599999999999" y="3910.8" width="64" height="70" as="geometry"/>
                </mxCell>
                <mxCell id="73" value="" style="rounded=0;whiteSpace=wrap;html=1;strokeWidth=2;fillColor=#FFFFFF;strokeColor=none;" vertex="1" parent="1">
                    <mxGeometry x="301.9599999999999" y="3918.8" width="50" height="10" as="geometry"/>
                </mxCell>
                <mxCell id="74" value="" style="rounded=0;whiteSpace=wrap;html=1;strokeWidth=2;fillColor=#FFFFFF;strokeColor=none;" vertex="1" parent="1">
                    <mxGeometry x="301.9599999999999" y="3933.8" width="50" height="10" as="geometry"/>
                </mxCell>
                <mxCell id="75" value="" style="rounded=0;whiteSpace=wrap;html=1;strokeWidth=2;fillColor=#FFFFFF;strokeColor=none;" vertex="1" parent="1">
                    <mxGeometry x="301.9599999999999" y="3948.8" width="50" height="10" as="geometry"/>
                </mxCell>
                <mxCell id="76" value="" style="rounded=0;whiteSpace=wrap;html=1;strokeWidth=2;strokeColor=none;fillColor=#FFB500;" vertex="1" parent="1">
                    <mxGeometry x="301.9599999999999" y="3963.8" width="50" height="10" as="geometry"/>
                </mxCell>
                <mxCell id="77" value="" style="rounded=1;whiteSpace=wrap;html=1;strokeWidth=2;arcSize=14;strokeColor=#808080;fillColor=#66d5eb;" vertex="1" parent="1">
                    <mxGeometry x="378.9599999999999" y="3910.8" width="64" height="70" as="geometry"/>
                </mxCell>
                <mxCell id="78" value="" style="rounded=0;whiteSpace=wrap;html=1;strokeWidth=2;fillColor=#FFFFFF;strokeColor=none;" vertex="1" parent="1">
                    <mxGeometry x="385.9599999999999" y="3918.8" width="50" height="10" as="geometry"/>
                </mxCell>
                <mxCell id="79" value="" style="rounded=0;whiteSpace=wrap;html=1;strokeWidth=2;fillColor=#FFFFFF;strokeColor=none;" vertex="1" parent="1">
                    <mxGeometry x="385.9599999999999" y="3933.8" width="50" height="10" as="geometry"/>
                </mxCell>
                <mxCell id="80" value="" style="rounded=0;whiteSpace=wrap;html=1;strokeWidth=2;fillColor=#FFFFFF;strokeColor=none;" vertex="1" parent="1">
                    <mxGeometry x="385.9599999999999" y="3948.8" width="50" height="10" as="geometry"/>
                </mxCell>
                <mxCell id="81" value="" style="rounded=0;whiteSpace=wrap;html=1;strokeWidth=2;fillColor=#FFFFFF;strokeColor=none;" vertex="1" parent="1">
                    <mxGeometry x="385.9599999999999" y="3963.8" width="50" height="10" as="geometry"/>
                </mxCell>
                <mxCell id="82" value="" style="shape=flexArrow;endArrow=classic;html=1;strokeColor=#FFFFFF;fillColor=#cacacb;" edge="1" parent="1">
                    <mxGeometry width="50" height="50" relative="1" as="geometry">
                        <mxPoint x="323.9599999999991" y="3985.7999999999993" as="sourcePoint"/>
                        <mxPoint x="324" y="4064" as="targetPoint"/>
                    </mxGeometry>
                </mxCell>
                <mxCell id="83" value="" style="shape=flexArrow;endArrow=classic;html=1;strokeColor=#FFFFFF;fillColor=#cacacb;" edge="1" parent="1">
                    <mxGeometry width="50" height="50" relative="1" as="geometry">
                        <mxPoint x="352.9599999999991" y="3856.7999999999993" as="sourcePoint"/>
                        <mxPoint x="322.9599999999991" y="3906.7999999999993" as="targetPoint"/>
                    </mxGeometry>
                </mxCell>
                <mxCell id="84" value="" style="shape=flexArrow;endArrow=classic;html=1;strokeColor=#FFFFFF;fillColor=#cacacb;exitX=0.683;exitY=0.831;exitDx=0;exitDy=0;exitPerimeter=0;" edge="1" parent="1">
                    <mxGeometry width="50" height="50" relative="1" as="geometry">
                        <mxPoint x="385.0668000000005" y="3858.1800000000003" as="sourcePoint"/>
                        <mxPoint x="412.9599999999991" y="3907.7999999999993" as="targetPoint"/>
                    </mxGeometry>
                </mxCell>
                <mxCell id="85" value="&lt;h6&gt;&lt;font color=&quot;#808080&quot;&gt;EXCHANGE&lt;/font&gt;&lt;/h6&gt;" style="text;html=1;strokeColor=none;fillColor=none;align=center;verticalAlign=middle;whiteSpace=wrap;rounded=0;opacity=50;" vertex="1" parent="1">
                    <mxGeometry x="210.95999999999992" y="3786.8" width="59" height="10" as="geometry"/>
                </mxCell>
                <mxCell id="86" value="&lt;h6&gt;&lt;font color=&quot;#808080&quot;&gt;QUEUES&lt;/font&gt;&lt;/h6&gt;" style="text;html=1;strokeColor=none;fillColor=none;align=center;verticalAlign=middle;whiteSpace=wrap;rounded=0;opacity=50;" vertex="1" parent="1">
                    <mxGeometry x="211.95999999999992" y="3908.8" width="43" height="10" as="geometry"/>
                </mxCell>
                <mxCell id="87" value="&lt;h6&gt;&lt;font color=&quot;#808080&quot;&gt;Binding&lt;/font&gt;&lt;/h6&gt;" style="text;html=1;strokeColor=none;fillColor=none;align=center;verticalAlign=middle;whiteSpace=wrap;rounded=0;opacity=50;" vertex="1" parent="1">
                    <mxGeometry x="349.9599999999999" y="3870.3900000000003" width="40" height="20" as="geometry"/>
                </mxCell>
                <mxCell id="88" value="" style="html=1;verticalLabelPosition=bottom;align=center;labelBackgroundColor=#ffffff;verticalAlign=top;strokeWidth=1;shadow=0;dashed=0;shape=mxgraph.ios7.icons.mail;rounded=1;fillColor=#FFD47B;strokeColor=#808080;" vertex="1" parent="1">
                    <mxGeometry x="49.960000000000036" y="3787.55" width="30" height="16.5" as="geometry"/>
                </mxCell>
                <mxCell id="89" value="" style="html=1;verticalLabelPosition=bottom;align=center;labelBackgroundColor=#ffffff;verticalAlign=top;strokeWidth=1;shadow=0;dashed=0;shape=mxgraph.ios7.icons.envelope_(message);rounded=1;fillColor=#FFD47B;strokeColor=#808080;" vertex="1" parent="1">
                    <mxGeometry x="360" y="4066" width="40.88" height="34" as="geometry"/>
                </mxCell>
                <mxCell id="90" value="" style="group" vertex="1" connectable="0" parent="1">
                    <mxGeometry x="184.95999999999992" y="4000.8" width="61.76" height="15" as="geometry"/>
                </mxCell>
                <mxCell id="91" value="" style="shape=image;verticalLabelPosition=bottom;labelBackgroundColor=#ffffff;verticalAlign=top;aspect=fixed;imageAspect=0;image=https://cdn.iconscout.com/icon/free/png-256/rabbitmq-282296.png;" vertex="1" parent="90">
                    <mxGeometry x="5.606465997770346" y="3" width="12.90969899665552" height="12.90969899665552" as="geometry"/>
                </mxCell>
                <mxCell id="92" value="&lt;font color=&quot;#333333&quot; style=&quot;font-size: 9px&quot;&gt;&lt;b&gt;RabbitMQ&lt;/b&gt;&lt;/font&gt;" style="text;html=1;strokeColor=none;fillColor=none;align=center;verticalAlign=middle;whiteSpace=wrap;rounded=0;" vertex="1" parent="90">
                    <mxGeometry x="18.727670011148266" y="2.3600000000001273" width="43.03232998885173" height="14.29" as="geometry"/>
                </mxCell>
                <mxCell id="93" value="&lt;h6&gt;BROKER&lt;/h6&gt;" style="text;html=1;strokeColor=none;fillColor=none;align=center;verticalAlign=middle;whiteSpace=wrap;rounded=0;opacity=50;" vertex="1" parent="1">
                    <mxGeometry x="182.95999999999992" y="3758.3900000000003" width="40" height="10" as="geometry"/>
                </mxCell>
                <mxCell id="94" value="&lt;div style=&quot;text-align: center&quot;&gt;&lt;span style=&quot;font-size: 8.04px&quot;&gt;&lt;font face=&quot;helvetica&quot;&gt;&lt;b&gt;PRODUCER&lt;/b&gt;&lt;/font&gt;&lt;/span&gt;&lt;/div&gt;" style="text;whiteSpace=wrap;html=1;" vertex="1" parent="1">
                    <mxGeometry x="174.96000000000004" y="3720.8" width="69" height="20" as="geometry"/>
                </mxCell>
                <mxCell id="95" value="&lt;div style=&quot;text-align: center&quot;&gt;&lt;span style=&quot;font-size: 8.04px&quot;&gt;&lt;font face=&quot;helvetica&quot;&gt;&lt;b&gt;CONSUMER&lt;/b&gt;&lt;/font&gt;&lt;/span&gt;&lt;/div&gt;" style="text;whiteSpace=wrap;html=1;" vertex="1" parent="1">
                    <mxGeometry x="174.96000000000004" y="4029.8" width="69" height="20" as="geometry"/>
                </mxCell>
                <mxCell id="96" value="" style="group" vertex="1" connectable="0" parent="1">
                    <mxGeometry x="437.9599999999999" y="3726.8" width="34.76" height="26.41" as="geometry"/>
                </mxCell>
                <mxCell id="97" value="" style="ellipse;whiteSpace=wrap;html=1;aspect=fixed;rounded=1;strokeWidth=1;fillColor=#E6E6E6;strokeColor=#4D4D4D;" vertex="1" parent="96">
                    <mxGeometry x="8.66720869239412" y="4.492825443787047" width="17.417837771203178" height="17.417837771203178" as="geometry"/>
                </mxCell>
                <mxCell id="98" value="1" style="text;html=1;strokeColor=none;fillColor=none;align=center;verticalAlign=middle;whiteSpace=wrap;rounded=0;" vertex="1" parent="96">
                    <mxGeometry width="34.76" height="26.410000000000036" as="geometry"/>
                </mxCell>
                <mxCell id="99" value="" style="group" vertex="1" connectable="0" parent="1">
                    <mxGeometry x="437.9599999999999" y="3811.8" width="34.76" height="26.41" as="geometry"/>
                </mxCell>
                <mxCell id="100" value="" style="ellipse;whiteSpace=wrap;html=1;aspect=fixed;rounded=1;strokeWidth=1;fillColor=#E6E6E6;strokeColor=#4D4D4D;" vertex="1" parent="99">
                    <mxGeometry x="8.66720869239412" y="4.492825443787047" width="17.417837771203178" height="17.417837771203178" as="geometry"/>
                </mxCell>
                <mxCell id="101" value="2" style="text;html=1;strokeColor=none;fillColor=none;align=center;verticalAlign=middle;whiteSpace=wrap;rounded=0;" vertex="1" parent="99">
                    <mxGeometry width="34.76" height="26.410000000000036" as="geometry"/>
                </mxCell>
                <mxCell id="102" value="" style="group" vertex="1" connectable="0" parent="1">
                    <mxGeometry x="437.9599999999999" y="3872.8" width="34.76" height="26.41" as="geometry"/>
                </mxCell>
                <mxCell id="103" value="" style="ellipse;whiteSpace=wrap;html=1;aspect=fixed;rounded=1;strokeWidth=1;fillColor=#E6E6E6;strokeColor=#4D4D4D;" vertex="1" parent="102">
                    <mxGeometry x="8.66720869239412" y="4.492825443787047" width="17.417837771203178" height="17.417837771203178" as="geometry"/>
                </mxCell>
                <mxCell id="104" value="3" style="text;html=1;strokeColor=none;fillColor=none;align=center;verticalAlign=middle;whiteSpace=wrap;rounded=0;" vertex="1" parent="102">
                    <mxGeometry width="34.76" height="26.410000000000036" as="geometry"/>
                </mxCell>
                <mxCell id="105" value="" style="group" vertex="1" connectable="0" parent="1">
                    <mxGeometry x="437.9599999999999" y="3941.8" width="34.76" height="26.41" as="geometry"/>
                </mxCell>
                <mxCell id="106" value="" style="ellipse;whiteSpace=wrap;html=1;aspect=fixed;rounded=1;strokeWidth=1;fillColor=#E6E6E6;strokeColor=#4D4D4D;" vertex="1" parent="105">
                    <mxGeometry x="8.66720869239412" y="4.492825443787047" width="17.417837771203178" height="17.417837771203178" as="geometry"/>
                </mxCell>
                <mxCell id="107" value="4" style="text;html=1;strokeColor=none;fillColor=none;align=center;verticalAlign=middle;whiteSpace=wrap;rounded=0;" vertex="1" parent="105">
                    <mxGeometry y="-1" width="34.76" height="26.410000000000036" as="geometry"/>
                </mxCell>
                <mxCell id="108" value="" style="group" vertex="1" connectable="0" parent="1">
                    <mxGeometry x="438.9599999999999" y="4023.8" width="34.76" height="26.41" as="geometry"/>
                </mxCell>
                <mxCell id="109" value="" style="ellipse;whiteSpace=wrap;html=1;aspect=fixed;rounded=1;strokeWidth=1;fillColor=#E6E6E6;strokeColor=#4D4D4D;" vertex="1" parent="108">
                    <mxGeometry x="8.66720869239412" y="4.492825443787047" width="17.417837771203178" height="17.417837771203178" as="geometry"/>
                </mxCell>
                <mxCell id="110" value="5" style="text;html=1;strokeColor=none;fillColor=none;align=center;verticalAlign=middle;whiteSpace=wrap;rounded=0;" vertex="1" parent="108">
                    <mxGeometry y="-1" width="34.76" height="26.410000000000036" as="geometry"/>
                </mxCell>
                <mxCell id="111" value="" style="shape=flexArrow;endArrow=classic;html=1;strokeColor=#FFFFFF;fillColor=#cacacb;" edge="1" parent="1">
                    <mxGeometry width="50" height="50" relative="1" as="geometry">
                        <mxPoint x="-62.88999999999942" y="3795.7999999999993" as="sourcePoint"/>
                        <mxPoint x="29.959999999999127" y="3795.7999999999993" as="targetPoint"/>
                    </mxGeometry>
                </mxCell>
                <mxCell id="115" value="" style="shape=flexArrow;endArrow=classic;html=1;strokeColor=#FFFFFF;fillColor=#cacacb;exitX=0.538;exitY=0.814;exitDx=0;exitDy=0;exitPerimeter=0;" edge="1" parent="1">
                    <mxGeometry width="50" height="50" relative="1" as="geometry">
                        <mxPoint x="446.2040200000001" y="4101.92" as="sourcePoint"/>
                        <mxPoint x="549.36" y="4101.3" as="targetPoint"/>
                    </mxGeometry>
                </mxCell>
                <mxCell id="116" value="" style="group" vertex="1" connectable="0" parent="1">
                    <mxGeometry x="69.99692307692294" y="3136.0159259259253" width="85.99461538461547" height="147.96296296296293" as="geometry"/>
                </mxCell>
                <mxCell id="117" value="" style="group;rounded=1;strokeColor=#666;strokeWidth=3;fillColor=none;" vertex="1" connectable="0" parent="116">
                    <mxGeometry width="85.99461538461547" height="147.96296296296293" as="geometry"/>
                </mxCell>
                <mxCell id="118" value="" style="group" vertex="1" connectable="0" parent="117">
                    <mxGeometry x="1.1676923076924" y="30.750185185185195" width="84.82692307692308" height="104.44444444444444" as="geometry"/>
                </mxCell>
                <mxCell id="119" value="" style="outlineConnect=0;dashed=0;verticalLabelPosition=bottom;verticalAlign=top;align=center;html=1;shape=mxgraph.aws3.dynamo_db;fillColor=#2E73B8;gradientColor=none;rounded=0;" vertex="1" parent="118">
                    <mxGeometry x="43.32307692307696" y="48.74074074074074" width="28.583076923076923" height="33.074074074074076" as="geometry"/>
                </mxCell>
                <mxCell id="120" value="" style="dashed=0;outlineConnect=0;html=1;align=center;labelPosition=center;verticalLabelPosition=bottom;verticalAlign=top;shape=mxgraph.weblogos.mongodb;rounded=0;fillColor=none;" vertex="1" parent="118">
                    <mxGeometry y="26.98148148148148" width="34.861538461538466" height="75.02592592592593" as="geometry"/>
                </mxCell>
                <mxCell id="121" value="MongoDB" style="text;html=1;align=center;verticalAlign=middle;resizable=0;points=[];autosize=1;" vertex="1" parent="118">
                    <mxGeometry x="16.596153846153847" y="87.03703703703704" width="70" height="20" as="geometry"/>
                </mxCell>
                <mxCell id="122" value="Data Store" style="text;html=1;align=center;verticalAlign=middle;resizable=0;points=[];autosize=1;" vertex="1" parent="118">
                    <mxGeometry x="10.940769230769284" width="70" height="20" as="geometry"/>
                </mxCell>
                <mxCell id="123" style="edgeStyle=orthogonalEdgeStyle;rounded=0;orthogonalLoop=1;jettySize=auto;html=1;exitX=1;exitY=0.78;exitDx=0;exitDy=0;exitPerimeter=0;entryX=0.5;entryY=0;entryDx=0;entryDy=0;entryPerimeter=0;strokeColor=#266161;strokeWidth=3;" edge="1" parent="118" source="119" target="119">
                    <mxGeometry relative="1" as="geometry"/>
                </mxCell>
                <mxCell id="124" value="" style="rounded=1;whiteSpace=wrap;html=1;shadow=0;glass=0;comic=0;strokeWidth=2;fillColor=none;arcSize=11;" vertex="1" parent="1">
                    <mxGeometry x="270.9200000000002" y="3097" width="137.11" height="200" as="geometry"/>
                </mxCell>
                <mxCell id="125" value="&lt;span style=&quot;font-size: 15px&quot;&gt;Elastic&lt;br&gt;Search&lt;br&gt;Cluster&lt;br&gt;&lt;/span&gt;" style="text;html=1;strokeColor=none;fillColor=none;align=center;verticalAlign=middle;whiteSpace=wrap;rounded=0;shadow=0;glass=0;comic=0;" vertex="1" parent="1">
                    <mxGeometry x="269.27999999999986" y="3210" width="79.5" height="76.77" as="geometry"/>
                </mxCell>
                <mxCell id="126" value="&lt;font style=&quot;font-size: 15px&quot;&gt;Search Service&lt;/font&gt;" style="text;html=1;strokeColor=none;fillColor=none;align=center;verticalAlign=middle;whiteSpace=wrap;rounded=0;shadow=0;glass=0;comic=0;" vertex="1" parent="1">
                    <mxGeometry x="346.13" y="3098.8" width="54.75" height="95" as="geometry"/>
                </mxCell>
                <mxCell id="127" value="&lt;font style=&quot;font-size: 14px&quot;&gt;ELK&lt;br&gt;Stack&lt;/font&gt;" style="text;html=1;strokeColor=none;fillColor=none;align=center;verticalAlign=middle;whiteSpace=wrap;rounded=0;shadow=0;glass=0;comic=0;" vertex="1" parent="1">
                    <mxGeometry x="337.0000000000001" y="3174" width="73" height="64" as="geometry"/>
                </mxCell>
                <mxCell id="128" value="" style="shape=image;verticalLabelPosition=bottom;labelBackgroundColor=#ffffff;verticalAlign=top;aspect=fixed;imageAspect=0;image=https://www.elastic.co/static-res/images/elastic-logo-200.png;" vertex="1" parent="1">
                    <mxGeometry x="277.40999999999997" y="3136" width="67.25" height="67.25" as="geometry"/>
                </mxCell>
                <mxCell id="129" value="" style="shape=flexArrow;endArrow=classic;html=1;strokeColor=#FFFFFF;fillColor=#cacacb;" edge="1" parent="1">
                    <mxGeometry width="50" height="50" relative="1" as="geometry">
                        <mxPoint x="181" y="3209.709999999999" as="sourcePoint"/>
                        <mxPoint x="251" y="3209.709999999999" as="targetPoint"/>
                    </mxGeometry>
                </mxCell>
                <mxCell id="130" value="" style="shape=flexArrow;endArrow=classic;html=1;strokeColor=#FFFFFF;fillColor=#cacacb;" edge="1" parent="1">
                    <mxGeometry width="50" height="50" relative="1" as="geometry">
                        <mxPoint x="697" y="4099.799999999999" as="sourcePoint"/>
                        <mxPoint x="767" y="4099.799999999999" as="targetPoint"/>
                    </mxGeometry>
                </mxCell>
                <mxCell id="131" value="&lt;font style=&quot;font-size: 100px&quot;&gt;*&lt;/font&gt;" style="text;html=1;strokeColor=none;fillColor=none;align=center;verticalAlign=middle;whiteSpace=wrap;rounded=0;" vertex="1" parent="1">
                    <mxGeometry x="226.7599999999999" y="3070" width="40" height="100" as="geometry"/>
                </mxCell>
                <mxCell id="132" value="" style="group;rounded=1;arcSize=8;strokeColor=#000000;" vertex="1" connectable="0" parent="1">
                    <mxGeometry x="782" y="4011" width="420" height="186.67" as="geometry"/>
                </mxCell>
                <mxCell id="133" value="" style="outlineConnect=0;dashed=0;verticalLabelPosition=bottom;verticalAlign=top;align=center;html=1;shape=mxgraph.aws3.android;fillColor=#8CC64F;gradientColor=none;rounded=0;" vertex="1" parent="132">
                    <mxGeometry x="41.06666666666667" y="18.666999999999998" width="68.6" height="78.4014" as="geometry"/>
                </mxCell>
                <mxCell id="134" value="&lt;font style=&quot;font-size: 15px&quot;&gt;Node.js&lt;br&gt;&lt;/font&gt;" style="text;html=1;strokeColor=none;fillColor=none;align=center;verticalAlign=middle;whiteSpace=wrap;rounded=0;" vertex="1" parent="132">
                    <mxGeometry x="56.7" y="109.20194999999998" width="37.333333333333336" height="18.666999999999998" as="geometry"/>
                </mxCell>
                <mxCell id="135" value="" style="outlineConnect=0;dashed=0;verticalLabelPosition=bottom;verticalAlign=top;align=center;html=1;shape=mxgraph.aws3.dynamo_db;fillColor=#2E73B8;gradientColor=none;rounded=0;" vertex="1" parent="132">
                    <mxGeometry x="361.2" y="120.40214999999999" width="31.528000000000002" height="35.467299999999994" as="geometry"/>
                </mxCell>
                <mxCell id="136" value="" style="dashed=0;outlineConnect=0;html=1;align=center;labelPosition=center;verticalLabelPosition=bottom;verticalAlign=top;shape=mxgraph.weblogos.mongodb;rounded=0;fillColor=none;" vertex="1" parent="132">
                    <mxGeometry x="322.7466666666666" y="93.335" width="38.45333333333333" height="80.45477" as="geometry"/>
                </mxCell>
                <mxCell id="137" value="MongoDB" style="text;html=1;strokeColor=none;fillColor=none;align=center;verticalAlign=middle;whiteSpace=wrap;rounded=0;" vertex="1" parent="132">
                    <mxGeometry x="361.1999999999998" y="158.66949999999997" width="37.333333333333336" height="18.666999999999998" as="geometry"/>
                </mxCell>
                <mxCell id="138" value="" style="html=1;dashed=0;whitespace=wrap;fillColor=#2875E2;strokeColor=#ffffff;points=[[0.005,0.63,0],[0.1,0.2,0],[0.9,0.2,0],[0.5,0,0],[0.995,0.63,0],[0.72,0.99,0],[0.5,1,0],[0.28,0.99,0]];shape=mxgraph.kubernetes.icon;prIcon=api;rounded=0;" vertex="1" parent="132">
                    <mxGeometry x="160.53333333333333" y="20.533699999999996" width="84" height="69.0679" as="geometry"/>
                </mxCell>
                <mxCell id="139" value="" style="rounded=0;whiteSpace=wrap;html=1;fillColor=none;dashed=1;" vertex="1" parent="132">
                    <mxGeometry x="22.4" y="16.8003" width="277.2" height="130.66899999999998" as="geometry"/>
                </mxCell>
                <mxCell id="140" value="" style="rounded=0;whiteSpace=wrap;html=1;fillColor=none;dashed=1;" vertex="1" parent="132">
                    <mxGeometry x="317.14666666666665" y="16.8003" width="93.52000000000001" height="158.66949999999997" as="geometry"/>
                </mxCell>
                <mxCell id="141" value="API&lt;br&gt;(REST/gRPC)" style="text;html=1;strokeColor=none;fillColor=none;align=center;verticalAlign=middle;whiteSpace=wrap;rounded=0;" vertex="1" parent="132">
                    <mxGeometry x="163.1" y="97.0684" width="78.86666666666667" height="24.2671" as="geometry"/>
                </mxCell>
                <mxCell id="142" value="Data Store" style="text;html=1;strokeColor=none;fillColor=none;align=center;verticalAlign=middle;whiteSpace=wrap;rounded=0;" vertex="1" parent="132">
                    <mxGeometry x="319.9466666666666" y="65.33449999999999" width="93.33333333333333" height="18.666999999999998" as="geometry"/>
                </mxCell>
                <mxCell id="143" value="&lt;span style=&quot;font-size: 15px&quot;&gt;&lt;b&gt;IDENTITY SERVICE&lt;/b&gt;&lt;/span&gt;" style="text;html=1;strokeColor=none;fillColor=none;align=center;verticalAlign=middle;whiteSpace=wrap;rounded=0;" vertex="1" parent="132">
                    <mxGeometry x="12.833333333333334" y="158.66949999999997" width="145.83333333333334" height="18.666999999999998" as="geometry"/>
                </mxCell>
                <mxCell id="144" value="" style="shape=flexArrow;endArrow=classic;html=1;strokeColor=#FFFFFF;fillColor=#cacacb;" edge="1" parent="1">
                    <mxGeometry width="50" height="50" relative="1" as="geometry">
                        <mxPoint x="-383.7600000000002" y="3192.92" as="sourcePoint"/>
                        <mxPoint x="-238.8799999999992" y="3193.1600000000017" as="targetPoint"/>
                    </mxGeometry>
                </mxCell>
                <mxCell id="145" value="" style="shape=flexArrow;endArrow=classic;html=1;strokeColor=#FFFFFF;fillColor=#cacacb;" edge="1" parent="1">
                    <mxGeometry width="50" height="50" relative="1" as="geometry">
                        <mxPoint x="-238.8799999999992" y="3226.16" as="sourcePoint"/>
                        <mxPoint x="-383.7600000000002" y="3226.0699999999997" as="targetPoint"/>
                    </mxGeometry>
                </mxCell>
                <mxCell id="146" value="" style="group" vertex="1" connectable="0" parent="1">
                    <mxGeometry x="-520" y="3130.0000000000005" width="90.79999999999995" height="149.89999999999964" as="geometry"/>
                </mxCell>
                <mxCell id="147" value="" style="shadow=0;dashed=0;html=1;strokeColor=none;fillColor=#4495D1;labelPosition=center;verticalLabelPosition=bottom;verticalAlign=top;align=center;outlineConnect=0;shape=mxgraph.veeam.one_client;rounded=0;" vertex="1" parent="146">
                    <mxGeometry y="88.29999999999973" width="90.8" height="61.6" as="geometry"/>
                </mxCell>
                <mxCell id="148" value="" style="points=[[0.015,0.015,0],[0.985,0.015,0],[0.985,0.985,0],[0.015,0.985,0],[0.25,0,0],[0.5,0,0],[0.75,0,0],[1,0.25,0],[1,0.5,0],[1,0.75,0],[0.75,1,0],[0.5,1,0],[0.25,1,0],[0,0.75,0],[0,0.5,0],[0,0.25,0]];verticalLabelPosition=bottom;html=1;verticalAlign=top;aspect=fixed;align=center;pointerEvents=1;shape=mxgraph.cisco19.cell_phone;fillColor=#005073;strokeColor=none;rounded=0;" vertex="1" parent="146">
                    <mxGeometry x="32.799999999999955" width="25" height="50" as="geometry"/>
                </mxCell>
                <mxCell id="149" value="&lt;font size=&quot;1&quot;&gt;&lt;b style=&quot;font-size: 20px&quot;&gt;Clients&lt;/b&gt;&lt;/font&gt;" style="text;html=1;strokeColor=none;fillColor=none;align=center;verticalAlign=middle;whiteSpace=wrap;rounded=0;" vertex="1" parent="146">
                    <mxGeometry x="9.399999999999977" y="48.29999999999973" width="70" height="48.7" as="geometry"/>
                </mxCell>
                <mxCell id="150" value="" style="verticalLabelPosition=bottom;html=1;verticalAlign=top;align=center;strokeColor=none;fillColor=#00BEF2;shape=mxgraph.azure.file_2;pointerEvents=1;rounded=1;" vertex="1" parent="1">
                    <mxGeometry x="-340" y="3110" width="44.5" height="60" as="geometry"/>
                </mxCell>
                <mxCell id="151" value="" style="shape=flexArrow;endArrow=classic;html=1;strokeColor=#FFFFFF;fillColor=#cacacb;" edge="1" parent="1">
                    <mxGeometry width="50" height="50" relative="1" as="geometry">
                        <mxPoint x="-15" y="3211" as="sourcePoint"/>
                        <mxPoint x="55" y="3211" as="targetPoint"/>
                    </mxGeometry>
                </mxCell>
                <mxCell id="152" value="" style="group;rounded=1;arcSize=8;strokeColor=#000000;" vertex="1" connectable="0" parent="1">
                    <mxGeometry x="782" y="3731" width="420" height="186.67" as="geometry"/>
                </mxCell>
                <mxCell id="153" value="" style="outlineConnect=0;dashed=0;verticalLabelPosition=bottom;verticalAlign=top;align=center;html=1;shape=mxgraph.aws3.android;fillColor=#8CC64F;gradientColor=none;rounded=0;" vertex="1" parent="152">
                    <mxGeometry x="98.66666666666667" y="18.666999999999998" width="68.6" height="78.4014" as="geometry"/>
                </mxCell>
                <mxCell id="154" value="&lt;font style=&quot;font-size: 15px&quot;&gt;Node.js&lt;br&gt;&lt;/font&gt;" style="text;html=1;strokeColor=none;fillColor=none;align=center;verticalAlign=middle;whiteSpace=wrap;rounded=0;" vertex="1" parent="152">
                    <mxGeometry x="114.30000000000001" y="109.20194999999998" width="37.333333333333336" height="18.666999999999998" as="geometry"/>
                </mxCell>
                <mxCell id="155" value="" style="html=1;dashed=0;whitespace=wrap;fillColor=#2875E2;strokeColor=#ffffff;points=[[0.005,0.63,0],[0.1,0.2,0],[0.9,0.2,0],[0.5,0,0],[0.995,0.63,0],[0.72,0.99,0],[0.5,1,0],[0.28,0.99,0]];shape=mxgraph.kubernetes.icon;prIcon=api;rounded=0;" vertex="1" parent="152">
                    <mxGeometry x="218.13333333333333" y="20.533699999999996" width="84" height="69.0679" as="geometry"/>
                </mxCell>
                <mxCell id="156" value="" style="rounded=0;whiteSpace=wrap;html=1;fillColor=none;dashed=1;" vertex="1" parent="152">
                    <mxGeometry x="40" y="16.8" width="340" height="130.67" as="geometry"/>
                </mxCell>
                <mxCell id="157" value="API&lt;br&gt;(REST/gRPC)" style="text;html=1;strokeColor=none;fillColor=none;align=center;verticalAlign=middle;whiteSpace=wrap;rounded=0;" vertex="1" parent="152">
                    <mxGeometry x="220.7" y="97.0684" width="78.86666666666667" height="24.2671" as="geometry"/>
                </mxCell>
                <mxCell id="158" value="&lt;span style=&quot;font-size: 15px&quot;&gt;&lt;b&gt;NOTIFICATION SERVICE&lt;/b&gt;&lt;/span&gt;" style="text;html=1;strokeColor=none;fillColor=none;align=center;verticalAlign=middle;whiteSpace=wrap;rounded=0;" vertex="1" parent="152">
                    <mxGeometry x="31.83" y="158.67" width="187.17" height="18.67" as="geometry"/>
                </mxCell>
                <mxCell id="159" value="" style="shape=flexArrow;endArrow=classic;html=1;strokeColor=#FFFFFF;fillColor=#cacacb;" edge="1" parent="1">
                    <mxGeometry width="50" height="50" relative="1" as="geometry">
                        <mxPoint x="991.6599999999999" y="4001.7999999999993" as="sourcePoint"/>
                        <mxPoint x="991.6599999999999" y="3931.7999999999993" as="targetPoint"/>
                    </mxGeometry>
                </mxCell>
                <mxCell id="160" value="&lt;b&gt;&lt;font style=&quot;font-size: 80px&quot;&gt;BULK IDENTITY CHECK&lt;/font&gt;&lt;/b&gt;" style="text;html=1;strokeColor=none;fillColor=none;align=center;verticalAlign=middle;whiteSpace=wrap;rounded=0;" vertex="1" parent="1">
                    <mxGeometry x="424.00000000000006" y="3286.7699999999995" width="860.41" height="268.86" as="geometry"/>
                </mxCell>
                <mxCell id="161" value="" style="dashed=0;outlineConnect=0;html=1;align=center;labelPosition=center;verticalLabelPosition=bottom;verticalAlign=top;shape=mxgraph.weblogos.json_2;rounded=1;strokeColor=#000000;strokeWidth=2;fillColor=none;" vertex="1" parent="1">
                    <mxGeometry x="-14" y="3227.39" width="66.4" height="20.81" as="geometry"/>
                </mxCell>
                <mxCell id="162" value="" style="dashed=0;outlineConnect=0;html=1;align=center;labelPosition=center;verticalLabelPosition=bottom;verticalAlign=top;shape=mxgraph.weblogos.json_2;rounded=1;strokeColor=#000000;strokeWidth=2;fillColor=none;" vertex="1" parent="1">
                    <mxGeometry x="182.64" y="3232.7999999999997" width="66.4" height="20.81" as="geometry"/>
                </mxCell>
                <mxCell id="163" value="" style="dashed=0;outlineConnect=0;html=1;align=center;labelPosition=center;verticalLabelPosition=bottom;verticalAlign=top;shape=mxgraph.weblogos.json_2;rounded=1;strokeColor=#000000;strokeWidth=2;fillColor=none;" vertex="1" parent="1">
                    <mxGeometry x="697" y="4124.799999999999" width="66.4" height="20.81" as="geometry"/>
                </mxCell>
                <mxCell id="164" value="" style="dashed=0;outlineConnect=0;html=1;align=center;labelPosition=center;verticalLabelPosition=bottom;verticalAlign=top;shape=mxgraph.weblogos.json_2;rounded=1;strokeColor=#000000;strokeWidth=2;fillColor=none;" vertex="1" parent="1">
                    <mxGeometry x="457" y="4123.999999999999" width="66.4" height="20.81" as="geometry"/>
                </mxCell>
                <mxCell id="165" value="" style="verticalLabelPosition=bottom;html=1;verticalAlign=top;align=center;strokeColor=none;fillColor=#00BEF2;shape=mxgraph.azure.file_2;pointerEvents=1;rounded=1;" vertex="1" parent="1">
                    <mxGeometry x="-289.38" y="3795.01" width="44.5" height="60" as="geometry"/>
                </mxCell>
                <mxCell id="166" value="" style="verticalLabelPosition=bottom;html=1;verticalAlign=top;align=center;strokeColor=none;fillColor=#00BEF2;shape=mxgraph.azure.file_2;pointerEvents=1;rounded=1;" vertex="1" parent="1">
                    <mxGeometry x="-370" y="3969.8" width="44.5" height="60" as="geometry"/>
                </mxCell>
                <mxCell id="167" value="" style="group" vertex="1" connectable="0" parent="1">
                    <mxGeometry x="569.9999999999999" y="4070" width="111" height="60" as="geometry"/>
                </mxCell>
                <mxCell id="112" value="" style="rounded=1;whiteSpace=wrap;html=1;strokeColor=#808080;strokeWidth=1;fillColor=#DCE7EF;" vertex="1" parent="167">
                    <mxGeometry width="111" height="60" as="geometry"/>
                </mxCell>
                <mxCell id="113" value="" style="outlineConnect=0;dashed=0;verticalLabelPosition=bottom;verticalAlign=top;align=center;html=1;shape=mxgraph.aws3.android;fillColor=#8CC64F;gradientColor=none;rounded=1;strokeColor=#808080;strokeWidth=1;" vertex="1" parent="167">
                    <mxGeometry x="8" y="6" width="38.5" height="44" as="geometry"/>
                </mxCell>
                <mxCell id="114" value="Worker&lt;br&gt;Service" style="text;html=1;strokeColor=none;fillColor=none;align=center;verticalAlign=middle;whiteSpace=wrap;rounded=0;" vertex="1" parent="167">
                    <mxGeometry x="60.88000000000011" y="32" width="40" height="20" as="geometry"/>
                </mxCell>
            </root>
        </mxGraphModel>
    </diagram>
</mxfile>